<svg version="1.2" xmlns="http://www.w3.org/2000/svg" viewBox="0 0 100 125" width="100" height="125">
	<title>icon-feasibility</title>
	<style>
		tspan { white-space:pre } 
		.s0 { fill: #000000 } 
	</style>
	<g>
		<path class="s0" d="m6.9 75h9.7c1.1 0 1.9 0.8 1.9 1.8v11.3c0 1-0.8 1.8-1.9 1.8h-9.7c-1.1 0-1.9-0.8-1.9-1.8v-11.3c0-1 0.8-1.8 1.9-1.8z"/>
		<path class="s0" d="m26 66.7h9.8c1 0 1.8 0.8 1.8 1.8v19.6c0 1-0.8 1.8-1.8 1.8h-9.8c-1 0-1.9-0.8-1.9-1.8v-19.6c0-1 0.9-1.8 1.9-1.8z"/>
		<path class="s0" d="m45.1 51.2h9.8c1 0 1.9 0.9 1.9 1.9v35c0 1-0.9 1.8-1.9 1.8h-9.8c-1 0-1.9-0.8-1.9-1.8v-35c0-1 0.9-1.9 1.9-1.9z"/>
		<path class="s0" d="m64.2 35.9h9.8c1 0 1.9 0.8 1.9 1.9v50.3c0 1-0.9 1.8-1.9 1.8h-9.8c-1 0-1.8-0.8-1.8-1.8v-50.3c0-1.1 0.8-1.9 1.8-1.9z"/>
		<path class="s0" d="m83.4 16.3h9.7c1.1 0 1.9 0.8 1.9 1.9v69.9c0 1-0.8 1.8-1.9 1.8h-9.7c-1.1 0-1.9-0.8-1.9-1.8v-69.9c0-1.1 0.8-1.9 1.9-1.9z"/>
		<path class="s0" d="m70.9 10.1l-15.5 2.6q-0.4 0.1-0.7 0.4-0.3 0.2-0.4 0.6-0.1 0.4 0 0.7 0.1 0.4 0.4 0.7l2.4 2.1q-5.7 6.1-11.8 11.9-6 5.9-12.2 11.4-6.3 5.6-12.8 10.9-6.4 5.3-13.1 10.3-0.3 0.2-0.4 0.6 0 0.3 0.1 0.6 0.2 0.3 0.5 0.4 0.3 0.1 0.7-0.1 7.9-3.6 15.6-7.8 7.7-4.2 15.1-8.8 7.4-4.7 14.5-9.8 7.1-5.1 13.9-10.7l2.4 2.1q0.3 0.3 0.7 0.3 0.4 0.1 0.7 0 0.4-0.2 0.6-0.5 0.2-0.3 0.3-0.7l0.6-15.8q0-0.3-0.1-0.6-0.1-0.3-0.3-0.5-0.3-0.2-0.6-0.3-0.3-0.1-0.6 0z"/>
	</g>
</svg>