<svg version="1.2" xmlns="http://www.w3.org/2000/svg" viewBox="0 0 100 125" width="100" height="125">
	<title>icon-innovation</title>
	<style>
		tspan { white-space:pre } 
		.s0 { fill: #000000 } 
	</style>
	<g>
		<path fill-rule="evenodd" class="s0" d="m79.4 87.9c-3.5 2.5-12.3 7.1-29.4 7.1-17.1 0-25.9-4.6-29.4-7.1-1.2-0.8-1.9-2.2-1.7-3.7 1.8-14.7 20.8-19.4 23.1-19.9l8 6.2-3.6 13.9 3.6 5.9 3.8-6-3.8-13.8 8-6.2c2.2 0.5 21.2 5.2 23 19.9 0.2 1.4-0.4 2.9-1.6 3.7zm-10.7-8.2h-9v2.4h9z"/>
		<path class="s0" d="m42.6 56.3h14.7v2h-14.7z"/>
		<path class="s0" d="m48.5 63.2c0 0.7 0.7 1.3 1.5 1.3 0.8 0 1.5-0.6 1.5-1.3 4.8-0.5 5.5-3.5 5.5-3.5h-14c0 0 0.7 3 5.5 3.5z"/>
		<path class="s0" d="m51.2 54.6l3-12.9-1.7 1.1c-0.3 0.2-0.6 0.2-1 0.1-0.3-0.1-0.6-0.3-0.7-0.6l-0.8-1.8-0.8 1.9c-0.1 0.3-0.4 0.5-0.7 0.6-0.3 0.1-0.7 0-0.9-0.1l-1.9-1.2 3 12.9q0 0.2 0 0.3h2.4c0.1-0.1 0.1-0.2 0.1-0.3z"/>
		<path class="s0" d="m41.2 51.7c0.2 1.5 0.7 2.5 1.2 3.2h4.1l-3.5-15.3c-0.1-0.4 0.1-0.8 0.5-1 0.4-0.2 0.9-0.2 1.2 0l3 1.9 1.4-3.1c0.2-0.4 0.6-0.6 1-0.6 0.5 0 0.9 0.3 1 0.6l1.3 3 2.8-1.9c0.4-0.2 0.9-0.2 1.2 0 0.4 0.2 0.6 0.6 0.5 1.1l-3.6 15.3h4c0.6-0.7 1.1-1.7 1.3-3.2 0.7-3.8 2.1-4.9 2.1-4.9 2.8-3.3 5.3-8 5.7-13 0.1-0.6 0.1-1.3 0.1-1.9 0-8.3-7.4-15.1-16.4-15.1-5.2 0-9.8 2.2-12.9 5.7-0.8 0.9-1.6 2-2.2 3.3-3.7 7.7-0.2 16 4.1 21 0 0 1.6 1.6 2.1 4.9z"/>
		<path class="s0" d="m50 13c0.5 0 0.9-0.4 0.9-0.9v-6.2c-0.1-0.5-0.5-0.9-0.9-0.9-0.5 0-0.9 0.4-0.9 0.9v6.3c0 0.4 0.4 0.8 0.9 0.8z"/>
		<path class="s0" d="m37.6 15.4c0.2 0.3 0.4 0.4 0.7 0.4 0.2 0 0.3 0 0.5-0.1 0.4-0.3 0.5-0.8 0.3-1.2l-3.4-5.4c-0.3-0.4-0.8-0.5-1.2-0.3-0.4 0.3-0.5 0.8-0.3 1.2z"/>
		<path class="s0" d="m23.6 20.4l5.9 3.1c0.1 0.1 0.3 0.1 0.4 0.1 0.3 0 0.6-0.2 0.8-0.5 0.2-0.4 0.1-0.9-0.4-1.2l-5.9-3.1c-0.4-0.2-0.9-0.1-1.2 0.4-0.2 0.5-0.1 1 0.4 1.2z"/>
		<path class="s0" d="m20 34.3h6.8c0.5 0 0.9-0.4 0.9-0.9 0-0.5-0.4-0.9-0.9-0.9h-6.8c-0.5 0-0.9 0.4-0.9 0.9 0 0.5 0.4 0.9 0.9 0.9z"/>
		<path class="s0" d="m29.5 43.3l-5.9 3.1c-0.4 0.2-0.6 0.7-0.4 1.2 0.2 0.3 0.4 0.5 0.8 0.5 0.1 0 0.3 0 0.4-0.1l5.9-3.1c0.4-0.2 0.6-0.7 0.4-1.2-0.3-0.4-0.8-0.6-1.2-0.4z"/>
		<path class="s0" d="m60.8 15.8c0.1 0.1 0.3 0.1 0.5 0.1 0.3 0 0.6-0.1 0.7-0.4l3.4-5.4c0.3-0.4 0.1-0.9-0.3-1.2-0.4-0.3-0.9-0.1-1.2 0.3l-3.4 5.4c-0.2 0.4-0.1 0.9 0.3 1.2z"/>
		<path class="s0" d="m69.7 23.7c0.1 0 0.3 0 0.4-0.1l5.9-3.1c0.4-0.2 0.6-0.7 0.4-1.2-0.2-0.4-0.7-0.6-1.2-0.4l-5.9 3.1c-0.4 0.2-0.6 0.7-0.4 1.2 0.2 0.4 0.5 0.5 0.8 0.5z"/>
		<path class="s0" d="m71.9 33.5c0 0.5 0.4 0.9 0.9 0.9h6.8c0.5 0 0.9-0.4 0.9-0.9 0-0.5-0.4-0.9-0.9-0.9h-6.8c-0.5 0.1-0.9 0.5-0.9 0.9z"/>
		<path class="s0" d="m69.3 44.9l5.9 3.1c0.1 0.1 0.3 0.1 0.4 0.1 0.3 0 0.6-0.2 0.8-0.5 0.2-0.4 0.1-0.9-0.4-1.2l-5.9-3.1c-0.4-0.2-0.9-0.1-1.2 0.4-0.2 0.5-0.1 1 0.4 1.2z"/>
	</g>
</svg>